<svg width="1220" height="325" viewBox="0 0 1220 325" fill="none" xmlns="http://www.w3.org/2000/svg">
<path d="M104.939 131.846C112.209 123.032 123.085 117.921 134.566 117.921H328.028L311.125 159.055C297.454 190.571 273.35 198.114 251.964 198.114H139.513C125.124 198.114 111.722 190.856 103.941 178.851L102.366 176.42C93.3946 162.579 94.4336 144.581 104.939 131.846Z" fill="#DC1B1B"/>
<path d="M245.264 257.141L262.528 212.255H139.078C119.593 212.255 101.435 202.466 90.8363 186.25L88.6797 182.95C76.3189 164.038 77.7472 139.36 92.2088 121.975C102.103 110.081 116.836 103.193 132.382 103.193H328.028C359.194 103.193 366.589 84.6992 372.399 72.043L392.472 23.2817H245.264C239.808 23.2817 233.851 23.2202 227.507 23.1546C191.626 22.7836 137.023 22.2847 97.0216 32.0771C72.2442 38.1425 51.9655 49.1255 31.5338 70.1252C10.2915 91.958 3.95879e-05 120.211 1.47928e-10 152.87C-4.56774e-05 188.784 10.5782 219.347 32.4015 242.902C53.6945 265.885 70.9788 279.668 97.0216 286.032C122.587 292.279 123.494 293.225 156.355 292.279H194.915C220.27 292.279 232.419 281.588 245.264 257.141Z" fill="#DC1B1B"/>
<path d="M443.725 133C442.692 133 441.762 132.638 440.935 131.915C440.212 131.088 439.85 130.158 439.85 129.125V28.375C439.85 27.2383 440.212 26.3083 440.935 25.585C441.762 24.8617 442.692 24.5 443.725 24.5H516.11C517.247 24.5 518.177 24.8617 518.9 25.585C519.623 26.3083 519.985 27.2383 519.985 28.375V42.945C519.985 43.9783 519.623 44.9083 518.9 45.735C518.177 46.4583 517.247 46.82 516.11 46.82H466.665V67.745H512.7C513.837 67.745 514.767 68.1583 515.49 68.985C516.213 69.7083 516.575 70.6383 516.575 71.775V85.26C516.575 86.2933 516.213 87.2233 515.49 88.05C514.767 88.7733 513.837 89.135 512.7 89.135H466.665V110.68H517.35C518.487 110.68 519.417 111.042 520.14 111.765C520.863 112.488 521.225 113.418 521.225 114.555V129.125C521.225 130.158 520.863 131.088 520.14 131.915C519.417 132.638 518.487 133 517.35 133H443.725ZM561.319 134.55C555.842 134.55 550.831 133.517 546.284 131.45C541.841 129.28 538.327 126.387 535.744 122.77C533.264 119.05 532.024 114.968 532.024 110.525C532.024 103.395 534.917 97.66 540.704 93.32C546.594 88.98 554.654 85.9833 564.884 84.33L584.259 81.385V79.215C584.259 75.2883 583.432 72.395 581.779 70.535C580.126 68.675 577.336 67.745 573.409 67.745C571.032 67.745 569.069 68.1583 567.519 68.985C565.969 69.8117 564.367 70.9483 562.714 72.395C561.267 73.635 560.182 74.4617 559.459 74.875C559.149 75.7017 558.581 76.115 557.754 76.115H540.859C539.826 76.115 538.947 75.805 538.224 75.185C537.604 74.4617 537.346 73.635 537.449 72.705C537.552 69.915 538.896 66.815 541.479 63.405C544.166 59.995 548.196 57.05 553.569 54.57C559.046 52.09 565.762 50.85 573.719 50.85C586.429 50.85 595.832 53.6917 601.929 59.375C608.026 64.955 611.074 72.4983 611.074 82.005V129.125C611.074 130.158 610.712 131.088 609.989 131.915C609.266 132.638 608.336 133 607.199 133H589.219C588.186 133 587.256 132.638 586.429 131.915C585.706 131.088 585.344 130.158 585.344 129.125V123.7C583.071 126.903 579.867 129.538 575.734 131.605C571.704 133.568 566.899 134.55 561.319 134.55ZM568.604 116.88C573.357 116.88 577.181 115.33 580.074 112.23C583.071 109.13 584.569 104.583 584.569 98.59V96.42L571.394 98.745C562.094 100.398 557.444 103.653 557.444 108.51C557.444 111.093 558.529 113.16 560.699 114.71C562.869 116.157 565.504 116.88 568.604 116.88ZM661.735 134.55C653.365 134.55 646.338 133.362 640.655 130.985C635.075 128.608 630.942 125.767 628.255 122.46C625.568 119.153 624.225 116.208 624.225 113.625C624.225 112.592 624.587 111.765 625.31 111.145C626.137 110.422 627.015 110.06 627.945 110.06H645.615C646.235 110.06 646.803 110.318 647.32 110.835C648.56 111.662 649.49 112.333 650.11 112.85C652.383 114.503 654.347 115.743 656 116.57C657.757 117.293 659.875 117.655 662.355 117.655C665.352 117.655 667.78 117.087 669.64 115.95C671.603 114.71 672.585 113.005 672.585 110.835C672.585 109.078 672.068 107.683 671.035 106.65C670.105 105.617 668.245 104.635 665.455 103.705C662.665 102.672 658.428 101.587 652.745 100.45C644.168 98.6933 637.555 95.8517 632.905 91.925C628.358 87.895 626.085 82.5217 626.085 75.805C626.085 71.5683 627.428 67.5383 630.115 63.715C632.802 59.8917 636.78 56.7917 642.05 54.415C647.423 52.0383 653.778 50.85 661.115 50.85C668.452 50.85 674.858 51.9867 680.335 54.26C685.812 56.5333 689.945 59.3233 692.735 62.63C695.628 65.8333 697.075 68.7783 697.075 71.465C697.075 72.395 696.713 73.2217 695.99 73.945C695.37 74.6683 694.595 75.03 693.665 75.03H677.545C676.718 75.03 675.943 74.7717 675.22 74.255C673.877 73.5317 672.688 72.7567 671.655 71.93C669.898 70.5867 668.245 69.5533 666.695 68.83C665.145 68.1067 663.233 67.745 660.96 67.745C658.273 67.745 656.103 68.365 654.45 69.605C652.9 70.845 652.125 72.4467 652.125 74.41C652.125 75.96 652.538 77.2517 653.365 78.285C654.295 79.3183 656.155 80.3517 658.945 81.385C661.838 82.315 666.075 83.2967 671.655 84.33C681.678 86.0867 688.963 89.1867 693.51 93.63C698.16 98.0733 700.485 103.292 700.485 109.285C700.485 116.932 697.075 123.08 690.255 127.73C683.435 132.277 673.928 134.55 661.735 134.55ZM725.944 162.45C725.014 162.45 724.239 162.14 723.619 161.52C722.999 160.9 722.689 160.125 722.689 159.195C722.689 158.472 722.844 157.8 723.154 157.18L735.244 128.04L705.484 57.67C705.174 56.8433 705.019 56.2233 705.019 55.81C705.225 54.88 705.639 54.105 706.259 53.485C706.879 52.7617 707.654 52.4 708.584 52.4H726.254C728.424 52.4 729.922 53.485 730.749 55.655L748.419 100.76L766.554 55.655C767.587 53.485 769.137 52.4 771.204 52.4H788.564C789.494 52.4 790.269 52.7617 790.889 53.485C791.612 54.105 791.974 54.8283 791.974 55.655C791.974 56.0683 791.819 56.74 791.509 57.67L747.644 159.195C746.817 161.365 745.267 162.45 742.994 162.45H725.944ZM443.725 293C442.692 293 441.762 292.638 440.935 291.915C440.212 291.088 439.85 290.158 439.85 289.125V188.375C439.85 187.238 440.212 186.308 440.935 185.585C441.762 184.862 442.692 184.5 443.725 184.5H515.025C516.162 184.5 517.092 184.862 517.815 185.585C518.538 186.308 518.9 187.238 518.9 188.375V204.03C518.9 205.063 518.538 205.993 517.815 206.82C517.092 207.543 516.162 207.905 515.025 207.905H467.13V230.69H511.925C513.062 230.69 513.992 231.103 514.715 231.93C515.438 232.653 515.8 233.583 515.8 234.72V250.22C515.8 251.253 515.438 252.183 514.715 253.01C513.992 253.733 513.062 254.095 511.925 254.095H467.13V289.125C467.13 290.262 466.768 291.192 466.045 291.915C465.322 292.638 464.392 293 463.255 293H443.725ZM536.473 293C535.336 293 534.406 292.638 533.683 291.915C532.96 291.192 532.598 290.262 532.598 289.125V216.275C532.598 215.138 532.96 214.208 533.683 213.485C534.406 212.762 535.336 212.4 536.473 212.4H554.298C555.435 212.4 556.365 212.813 557.088 213.64C557.915 214.363 558.328 215.242 558.328 216.275V222.475C564.011 215.758 571.658 212.4 581.268 212.4H588.088C589.225 212.4 590.155 212.762 590.878 213.485C591.601 214.208 591.963 215.138 591.963 216.275V232.24C591.963 233.273 591.601 234.203 590.878 235.03C590.155 235.753 589.225 236.115 588.088 236.115H573.053C568.816 236.115 565.51 237.303 563.133 239.68C560.86 241.953 559.723 245.208 559.723 249.445V289.125C559.723 290.262 559.31 291.192 558.483 291.915C557.76 292.638 556.83 293 555.693 293H536.473ZM640.357 294.55C627.544 294.55 617.675 291.502 610.752 285.405C603.829 279.308 600.057 270.732 599.437 259.675C599.334 258.332 599.282 256.007 599.282 252.7C599.282 249.393 599.334 247.068 599.437 245.725C600.057 234.772 603.932 226.247 611.062 220.15C618.192 213.95 627.957 210.85 640.357 210.85C652.86 210.85 662.677 213.95 669.807 220.15C676.937 226.247 680.812 234.772 681.432 245.725C681.535 247.068 681.587 249.393 681.587 252.7C681.587 256.007 681.535 258.332 681.432 259.675C680.812 270.732 677.04 279.308 670.117 285.405C663.194 291.502 653.274 294.55 640.357 294.55ZM640.357 275.64C644.904 275.64 648.262 274.297 650.432 271.61C652.602 268.82 653.842 264.583 654.152 258.9C654.255 257.867 654.307 255.8 654.307 252.7C654.307 249.6 654.255 247.533 654.152 246.5C653.842 240.92 652.55 236.735 650.277 233.945C648.107 231.155 644.8 229.76 640.357 229.76C631.78 229.76 627.234 235.34 626.717 246.5L626.562 252.7L626.717 258.9C626.924 264.583 628.112 268.82 630.282 271.61C632.555 274.297 635.914 275.64 640.357 275.64ZM700.858 293C699.721 293 698.791 292.638 698.068 291.915C697.345 291.192 696.983 290.262 696.983 289.125V216.275C696.983 215.138 697.345 214.208 698.068 213.485C698.791 212.762 699.721 212.4 700.858 212.4H718.683C719.82 212.4 720.75 212.762 721.473 213.485C722.3 214.208 722.713 215.138 722.713 216.275V222.165C725.503 218.755 729.068 216.017 733.408 213.95C737.851 211.883 742.863 210.85 748.443 210.85C757.536 210.85 764.925 213.95 770.608 220.15C776.291 226.247 779.133 234.823 779.133 245.88V289.125C779.133 290.158 778.771 291.088 778.048 291.915C777.325 292.638 776.395 293 775.258 293H755.728C754.695 293 753.765 292.638 752.938 291.915C752.215 291.088 751.853 290.158 751.853 289.125V246.81C751.853 241.953 750.665 238.233 748.288 235.65C745.911 232.963 742.501 231.62 738.058 231.62C733.718 231.62 730.308 232.963 727.828 235.65C725.348 238.233 724.108 241.953 724.108 246.81V289.125C724.108 290.158 723.746 291.088 723.023 291.915C722.3 292.638 721.37 293 720.233 293H700.858ZM836.904 293C815.514 293 804.819 282.822 804.819 262.465V232.705H792.729C791.593 232.705 790.611 232.343 789.784 231.62C789.061 230.897 788.699 229.967 788.699 228.83V216.275C788.699 215.138 789.061 214.208 789.784 213.485C790.611 212.762 791.593 212.4 792.729 212.4H804.819V186.825C804.819 185.688 805.181 184.758 805.904 184.035C806.731 183.312 807.661 182.95 808.694 182.95H826.674C827.811 182.95 828.741 183.312 829.464 184.035C830.188 184.758 830.549 185.688 830.549 186.825V212.4H849.924C851.061 212.4 851.991 212.762 852.714 213.485C853.541 214.208 853.954 215.138 853.954 216.275V228.83C853.954 229.967 853.541 230.897 852.714 231.62C851.991 232.343 851.061 232.705 849.924 232.705H830.549V260.295C830.549 267.942 833.494 271.765 839.384 271.765H851.319C852.456 271.765 853.386 272.127 854.109 272.85C854.833 273.573 855.194 274.503 855.194 275.64V289.125C855.194 290.158 854.833 291.088 854.109 291.915C853.386 292.638 852.456 293 851.319 293H836.904ZM905.228 294.55C892.828 294.55 883.063 291.192 875.933 284.475C868.803 277.758 865.083 267.993 864.773 255.18V249.755C865.186 237.562 868.958 228.055 876.088 221.235C883.321 214.312 892.983 210.85 905.073 210.85C913.856 210.85 921.244 212.658 927.238 216.275C933.334 219.788 937.881 224.645 940.878 230.845C943.978 237.045 945.528 244.175 945.528 252.235V255.955C945.528 256.988 945.166 257.918 944.443 258.745C943.719 259.468 942.789 259.83 941.653 259.83H892.053V260.915C892.259 265.772 893.448 269.698 895.618 272.695C897.788 275.692 900.939 277.19 905.073 277.19C907.656 277.19 909.774 276.673 911.428 275.64C913.081 274.503 914.579 273.16 915.923 271.61C916.853 270.473 917.576 269.802 918.093 269.595C918.713 269.285 919.643 269.13 920.883 269.13H940.103C941.033 269.13 941.808 269.44 942.428 270.06C943.151 270.577 943.513 271.3 943.513 272.23C943.513 274.917 941.963 278.017 938.863 281.53C935.866 285.043 931.474 288.092 925.688 290.675C919.901 293.258 913.081 294.55 905.228 294.55ZM918.248 244.485V244.175C918.248 239.112 917.059 235.133 914.683 232.24C912.409 229.243 909.206 227.745 905.073 227.745C901.043 227.745 897.839 229.243 895.463 232.24C893.189 235.133 892.053 239.112 892.053 244.175V244.485H918.248ZM963.934 293C962.797 293 961.867 292.638 961.144 291.915C960.421 291.192 960.059 290.262 960.059 289.125V216.275C960.059 215.138 960.421 214.208 961.144 213.485C961.867 212.762 962.797 212.4 963.934 212.4H981.759C982.896 212.4 983.826 212.762 984.549 213.485C985.376 214.208 985.789 215.138 985.789 216.275V222.165C988.579 218.755 992.144 216.017 996.484 213.95C1000.93 211.883 1005.94 210.85 1011.52 210.85C1020.61 210.85 1028 213.95 1033.68 220.15C1039.37 226.247 1042.21 234.823 1042.21 245.88V289.125C1042.21 290.158 1041.85 291.088 1041.12 291.915C1040.4 292.638 1039.47 293 1038.33 293H1018.8C1017.77 293 1016.84 292.638 1016.01 291.915C1015.29 291.088 1014.93 290.158 1014.93 289.125V246.81C1014.93 241.953 1013.74 238.233 1011.36 235.65C1008.99 232.963 1005.58 231.62 1001.13 231.62C996.794 231.62 993.384 232.963 990.904 235.65C988.424 238.233 987.184 241.953 987.184 246.81V289.125C987.184 290.158 986.822 291.088 986.099 291.915C985.376 292.638 984.446 293 983.309 293H963.934ZM1089.73 294.55C1079.6 294.55 1071.7 291.398 1066.01 285.095C1060.43 278.688 1057.39 269.698 1056.87 258.125L1056.71 252.7L1056.87 247.12C1057.28 235.96 1060.33 227.125 1066.01 220.615C1071.8 214.105 1079.71 210.85 1089.73 210.85C1099.13 210.85 1106.73 213.898 1112.51 219.995V186.825C1112.51 185.688 1112.88 184.758 1113.6 184.035C1114.32 183.312 1115.25 182.95 1116.39 182.95H1135.3C1136.44 182.95 1137.37 183.312 1138.09 184.035C1138.81 184.758 1139.17 185.688 1139.17 186.825V289.125C1139.17 290.158 1138.81 291.088 1138.09 291.915C1137.37 292.638 1136.44 293 1135.3 293H1117.78C1116.75 293 1115.82 292.638 1114.99 291.915C1114.27 291.088 1113.91 290.158 1113.91 289.125V284.165C1108.23 291.088 1100.17 294.55 1089.73 294.55ZM1098.25 273.78C1102.9 273.78 1106.37 272.333 1108.64 269.44C1110.91 266.443 1112.2 262.62 1112.51 257.97C1112.62 256.627 1112.67 254.663 1112.67 252.08C1112.67 249.6 1112.62 247.688 1112.51 246.345C1112.31 242.108 1111.02 238.595 1108.64 235.805C1106.26 233.015 1102.8 231.62 1098.25 231.62C1093.4 231.62 1089.88 233.067 1087.71 235.96C1085.65 238.853 1084.46 242.832 1084.15 247.895C1084.05 248.928 1083.99 250.53 1083.99 252.7C1083.99 254.87 1084.05 256.472 1084.15 257.505C1084.46 262.568 1085.65 266.547 1087.71 269.44C1089.88 272.333 1093.4 273.78 1098.25 273.78Z" fill="#110F10"/>
</svg>
